<svg viewBox="0 0 181.73 84.123"
    xmlns="http://www.w3.org/2000/svg"
    xmlnsXlink="http://www.w3.org/1999/xlink">
    <defs>
        <linearGradient id="a">
            <stop stop-color="#7b2cbf" offset="0"/>
            <stop stop-color="#7b2cbf" offset=".523"/>
            <stop stop-color="#c77dff" offset="1"/>
        </linearGradient>
        <linearGradient id="b" x1="7.777" x2="179.5" y1="43.991" y2="43.991" gradientUnits="userSpaceOnUse" xlink:href="#a"/>
        <linearGradient id="c" x1="93.632" x2="93.632" y1="-7.939" y2="81.404" gradientUnits="userSpaceOnUse" xlink:href="#a"/>
    </defs>
    <path d="M171.15 35.379q2.542 0 4.638 1.494 1.718 1.22 2.697 3.144 1.013 1.958 1.013 4.226v8.863h-3.71v-8.863q0-1.048-.36-2.01-.344-.928-.997-1.65-.636-.703-1.477-1.099-.86-.412-1.804-.412-.945 0-1.82.412-.825.395-1.478 1.1-.636.721-.996 1.649-.361.962-.361 2.01v8.863h-3.693V36.461q.824-.652 2.25-.927.842-.172 1.254-.172.103 0 .189.017v1.512q2.096-1.512 4.655-1.512zm-19.335-3.882q.825-.636 2.25-.91.842-.172 1.254-.172.103 0 .19.017v3.521q-.087-.017-.19-.017-.412 0-1.254.172-1.425.275-2.25.91zm3.693 21.61h-3.693V36.462q.825-.653 2.25-.928.842-.172 1.254-.172.103 0 .19.018zm-10.42-3.693q.653.858.91 2.25.172.807.172 1.22 0 .137-.017.223l-1.133-.017q-2.045-.103-3.316-.808-.584-.343-.945-.618-1.27-.98-1.992-2.405-.756-1.477-.756-3.16v-7.73h-2.49v-.087q0-.55.188-1.236.292-1.048.876-1.667h1.426v-3.882q.773-.584 2.044-.876.876-.189 1.546-.189h.103v4.947h4.209v.086q0 .55-.19 1.237-.291 1.048-.875 1.666h-3.144v7.73q0 1.048.533 1.804.412.601 1.168.996.842.447 1.683.516zm-14.818 0q.653.858.91 2.25.172.807.172 1.22 0 .137-.017.223l-1.134-.017q-2.044-.103-3.315-.808-.584-.343-.945-.618-1.27-.98-1.992-2.405-.756-1.477-.756-3.16v-7.73h-2.49v-.087q0-.55.188-1.236.292-1.048.876-1.667h1.426v-3.882q.773-.584 2.044-.876.876-.189 1.546-.189h.103v4.947h4.209v.086q0 .55-.19 1.237-.291 1.048-.875 1.666h-3.144v7.73q0 1.048.533 1.804.412.601 1.168.996.842.447 1.683.516zm-18.442-6.648q-.43-1.632-1.597-2.646-1.203-1.047-2.749-1.047t-2.731 1.047q-1.134 1.014-1.58 2.646zm-8.657 2.954q.429 1.598 1.666 2.611 1.22.997 2.8 1.083.309.017.584.017 1.718 0 2.645-.619 1.03.31 2.01 1.375.567.6.893 1.168-1.357.91-2.56 1.288-1.477.464-3.572.464-1.7 0-3.247-.705-1.494-.67-2.662-1.89-1.151-1.236-1.787-2.816-.653-1.65-.653-3.453 0-1.804.653-3.453.636-1.58 1.787-2.817 1.168-1.22 2.662-1.89 1.546-.704 3.247-.704 1.511 0 2.886.567 1.322.55 2.405 1.563 1.047.997 1.735 2.337.687 1.357.944 2.92.103.739.103 1.477 0 .756-.103 1.477zm-10.867 7.387H88.61V28.079q.825-.636 2.25-.928.842-.172 1.255-.172.103 0 .189.018zM73.982 60.51q-.602.19-1.357.19-.499 0-1.065-.087-1.048-.154-1.409-.343l2.525-7.18q-.378-1.1-.928-2.766-1.116-3.315-2.06-6.08-1.306-3.883-2.045-6.099l-.928-2.766h3.917l4.088 12.213 4.398-12.213h3.916zm-20.246-7.403q-2.457 0-4.553-1.512-1.7-1.22-2.68-3.126-1.013-1.976-1.013-4.226V35.38h3.693v8.864q0 1.048.327 2.01.326.928.91 1.632.602.721 1.392 1.117.824.395 1.769.395.928 0 1.683-.395.705-.396 1.22-1.117.962-1.391.962-3.642V35.38h3.693v16.646q-.824.635-2.25.927-.79.155-1.203.155-.137 0-.24-.017v-1.495q-1.237.893-1.7 1.117-.842.395-2.01.395zM22.99 62.805l4.402.004-.017 16.171-2.226 2.073-2.176-2.078zm-12.443-8.797s7.61 5.186 14.73 5.127c8.422-.069 14.22-4.523 14.22-4.523s1.013.905 1.783 2.143c1.115 1.796 1.94 4.183.262 4.61-2.833.722-30.216 1.531-33.156-.408-.914-.603-.762-2.693.155-4.28 1.638-2.836 2.006-2.669 2.006-2.669zm15.018-3.38a8.02 8.02 0 003.513-.803 8.38 8.38 0 002.877-2.142 9.828 9.828 0 001.94-3.212c.492-1.249.737-2.554.737-3.914s-.245-2.666-.736-3.915a9.83 9.83 0 00-1.94-3.212 8.99 8.99 0 00-2.878-2.142c-1.116-.535-2.287-.803-3.513-.803s-2.41.268-3.547.803a9.502 9.502 0 00-2.878 2.142 10.658 10.658 0 00-1.94 3.212c-.469 1.25-.703 2.554-.703 3.915s.234 2.665.703 3.914a10.66 10.66 0 001.94 3.212c.848.937 1.807 1.651 2.878 2.142a8.236 8.236 0 003.547.803zm0-27.336c2.208 0 4.316.457 6.323 1.372 1.941.87 3.659 2.096 5.153 3.68a16.877 16.877 0 013.48 5.487c.87 2.142 1.305 4.384 1.305 6.726s-.435 4.584-1.305 6.725a16.875 16.875 0 01-3.48 5.487 16.066 16.066 0 01-5.153 3.68 15.082 15.082 0 01-6.323 1.373c-3.324 0-6.347-.982-9.068-2.945-2.986-2.35-5.664-5.057-6.799-9.325-1.668-4.996-.439-23.999-.394-36.48 1.07-.826 2.531-1.428 4.383-1.807 1.093-.223 1.907-.335 2.442-.335.134 0 .257.011.368.034v19.273c2.722-1.963 5.744-2.945 9.068-2.945z" fill="url(#c)" transform="translate(-2.777 -1.93)" stroke-width=".879" aria-label="uylettin"/>
</svg>